<?xml version="1.0" encoding="utf-8"?>
<!-- Generator: Adobe Illustrator 15.1.0, SVG Export Plug-In . SVG Version: 6.00 Build 0)  -->
<!DOCTYPE svg PUBLIC "-//W3C//DTD SVG 1.1//EN" "http://www.w3.org/Graphics/SVG/1.1/DTD/svg11.dtd">
<svg version="1.1" id="Layer_1" xmlns="http://www.w3.org/2000/svg" xmlns:xlink="http://www.w3.org/1999/xlink" x="0px" y="0px"
	 width="31.945px" height="25px" viewBox="10.837 8.481 31.945 25" enable-background="new 10.837 8.481 31.945 25"
	 xml:space="preserve">
<path fill="#F8F7F1" d="M42.782,8.481c-3.44,0.039-6.591,0.965-9.422,2.402c-0.703-0.683-1.657-1.106-2.706-1.106H14.726
	c-2.139,0-3.889,1.75-3.889,3.89v15.926c0,2.139,1.75,3.889,3.889,3.889h15.926c2.14,0,3.89-1.751,3.89-3.889V16.905
	c4.793-0.24,1.759-2.591,1.759-2.591c6.667-0.926,2.87-2.685,2.87-2.685C42.875,10.888,42.782,8.481,42.782,8.481 M13.8,30.518
	V12.739h16.444c-8.724,5.997-13.667,16.205-13.667,16.205l4.167-1.388c1.019-2.965,5-6.02,9.815-6.575
	c0.387-0.044,0.722-0.111,1.018-0.189v9.727L13.8,30.518L13.8,30.518z"/>
</svg>
